Midaq Alley 1995 DVDRip Xvid fasamoo LKRG

RIPPER                           : fasamoo
Format                           : AVI
Format/Info                      : Audio Video Interleave
File size                        : 800 MiB
Duration                         : 2h 24mn
Overall bit rate                 : 775 Kbps
Writing application              : VirtualDubMod 1.5.4.1 (build 2178/release)
Writing library                  : VirtualDubMod build 2178/release
Language                         : Spanish
Subtitles                        : English(Hardcoded)
Genre                            : Drama       

Video
ID                               : 0
Format                           : MPEG-4 Visual
Format profile                   : Advanced Simple@L5
Format settings, BVOP            : Yes
Format settings, QPel            : No
Format settings, GMC             : No warppoints
Format settings, Matrix          : Custom
Codec ID                         : XVID
Codec ID/Hint                    : XviD
Duration                         : 2h 24mn
Bit rate                         : 660 Kbps
Width                            : 480 pixels
Height                           : 336 pixels
Display aspect ratio             : 1.429
Frame rate                       : 23.976 fps
Color space                      : YUV
Chroma subsampling               : 4:2:0
Bit depth                        : 8 bits
Scan type                        : Progressive
Bits/(Pixel*Frame)               : 0.171
Stream size                      : 682 MiB (85%)
Writing library                  : XviD 1.2.1 (UTC 2008-12-04)

Audio
ID                               : 1
Format                           : MPEG Audio
Format version                   : Version 1
Format profile                   : Layer 3
Mode                             : Joint stereo
Mode extension                   : MS Stereo
Codec ID                         : 55
Codec ID/Hint                    : MP3
Duration                         : 2h 24mn
Bit rate mode                    : Variable
Bit rate                         : 102 Kbps
Nominal bit rate                 : 128 Kbps
Channel(s)                       : 2 channels
Sampling rate                    : 48.0 KHz
Stream size                      : 106 MiB (13%)
Alignment                        : Aligned on interleaves
Interleave, duration             : 24 ms (0.58 video frame)
Interleave, preload duration     : 612 ms
Writing library                  : LAME3.98r
Encoding settings                : -m j -V 4 -q 2 -lowpass 17 --abr 128

                                 PLOT

Based on the Nobel Prize Winner's novel, the Egyptian Naguib Mahfouz. The story, translated from El Cairo to Mexico City's downtown, narrates the life of the members of the neighbourhood and the connection between them Don Ru, the owner of the local pub; Eusebia, his wife; Chava, his son and Abel his friend, who emigrate to USA in search of fortune; Susanita, the single landtender always dreaming to marry a good man; Guicho, the pub's employee, who extracts the money when Don Ru is not there and finally marries Susanita; Alma, the very good looking girl, the Abel's dream, who becomes a luxury prostitute while he's away; Jimmy, the handsome young man Don Ru becomes infatuated with, etc. Starred by Mexican Hollywood star Salma Hayek and with 49 international awards, (including a Golden Ariel Award and a Goya Award Winner for Best Spanish Language Foreign Film) this is the most-awarded film in Mexican history! 


                                 IMBD
                     
                http://www.imdb.com/title/tt0112619/
 
http://leetleech.org/images/02139454723574635253.png 
http://leetleech.org/images/41739775504372854171.png 
http://leetleech.org/images/45951079106212794537.png 
http://leetleech.org/images/85338447018400717482.png